<svg width="128" height="141" viewBox="0 0 128 141" fill="none" xmlns="http://www.w3.org/2000/svg">
<path d="M65.3968 5.94525C65.1067 10.6064 67.8574 16.718 67.1573 20.639C66.097 26.5505 61.8159 30.9617 56.9947 34.2525C37.6197 47.5059 69.6779 35.8129 69.7479 35.7829C74.7492 33.9624 80.0006 29.8314 83.0314 25.5403C87.3225 19.4687 86.6523 10.5064 81.751 4.95499C77.59 0.243779 65.987 -3.72724 65.3968 5.94525Z" fill="#1B9768"/>
<path d="M8.5522 140.65H1.90049V123.315H15.604V128.967H8.5522V129.747H15.604V135.339H8.5522V140.66V140.65Z" fill="#1B9768"/>
<path d="M16.9544 131.988C16.9544 130.507 17.1644 129.207 17.5845 128.087C18.0046 126.966 18.5848 126.026 19.325 125.266C20.0652 124.516 20.9454 123.946 21.9756 123.555C23.0059 123.175 24.1162 122.975 25.3165 122.975C26.5168 122.975 27.6471 123.165 28.6674 123.555C29.6876 123.936 30.5679 124.506 31.3181 125.266C32.0682 126.016 32.6484 126.956 33.0685 128.087C33.4886 129.217 33.6987 130.507 33.6987 131.988C33.6987 133.468 33.4886 134.768 33.0685 135.889C32.6484 137.009 32.0582 137.949 31.3181 138.709C30.5679 139.46 29.6876 140.03 28.6674 140.42C27.6471 140.8 26.5268 141 25.3165 141C24.1062 141 23.0059 140.81 21.9756 140.43C20.9454 140.05 20.0652 139.49 19.325 138.729C18.5848 137.979 18.0046 137.039 17.5845 135.919C17.1644 134.798 16.9544 133.488 16.9544 131.998V131.988ZM22.7458 131.077L22.3457 131.678C23.186 132.078 24.1462 132.348 25.2065 132.478C26.2668 132.608 27.337 132.678 28.3973 132.678V132.008C27.337 132.008 26.3168 131.938 25.3465 131.798C24.3763 131.658 23.506 131.418 22.7458 131.077Z" fill="#1B9768"/>
<path d="M34.7989 131.988C34.7989 130.507 35.009 129.207 35.4291 128.087C35.8492 126.966 36.4294 126.026 37.1696 125.266C37.9097 124.516 38.79 123.946 39.8202 123.555C40.8505 123.175 41.9608 122.975 43.1611 122.975C44.3614 122.975 45.4917 123.165 46.512 123.555C47.5322 123.936 48.4124 124.506 49.1626 125.266C49.9128 126.016 50.493 126.956 50.9131 128.087C51.3332 129.217 51.5433 130.507 51.5433 131.988C51.5433 133.468 51.3332 134.768 50.9131 135.889C50.493 137.009 49.9028 137.949 49.1626 138.709C48.4124 139.46 47.5322 140.03 46.512 140.42C45.4917 140.8 44.3714 141 43.1611 141C41.9508 141 40.8505 140.81 39.8202 140.43C38.79 140.05 37.9097 139.49 37.1696 138.729C36.4294 137.979 35.8492 137.039 35.4291 135.919C35.009 134.798 34.7989 133.488 34.7989 131.998V131.988ZM40.5904 131.077L40.1903 131.678C41.0306 132.078 41.9908 132.348 43.0511 132.478C44.1113 132.608 45.1816 132.678 46.2419 132.678V132.008C45.1816 132.008 44.1614 131.938 43.1911 131.798C42.2209 131.658 41.3506 131.418 40.5904 131.077Z" fill="#1B9768"/>
<path d="M68.5676 129.987C68.5676 131.047 68.3976 131.938 68.0475 132.648C67.6974 133.358 67.2573 133.968 66.7072 134.488L69.0778 140.63H61.4558L60.0154 136.439H59.9954V140.65H52.9036V123.315H59.7154C61.2958 123.315 62.6461 123.455 63.7764 123.736C64.9067 124.016 65.8169 124.436 66.5271 124.986C67.2373 125.536 67.7574 126.236 68.0875 127.066C68.4176 127.897 68.5876 128.877 68.5876 129.987H68.5676ZM58.5451 129.057L58.145 129.607C58.455 129.817 58.8551 129.987 59.3353 130.137C59.8154 130.287 60.3255 130.407 60.8556 130.517C61.3858 130.617 61.9159 130.697 62.4561 130.747C62.9862 130.797 63.4563 130.827 63.8764 130.827V130.207C63.4663 130.207 63.0062 130.177 62.5061 130.117C62.0059 130.057 61.5058 129.977 61.0057 129.877C60.5056 129.777 60.0454 129.647 59.6053 129.507C59.1652 129.367 58.8151 129.217 58.5551 129.057H58.5451Z" fill="#1B9768"/>
<path d="M77.2799 123.315V140.65H69.898V123.315H77.2799Z" fill="#1B9768"/>
<path d="M84.9118 140.63H78.8803V123.315H84.7518C86.3622 123.315 87.7826 123.455 88.9929 123.746C90.2132 124.036 91.2235 124.516 92.0437 125.196C92.8539 125.876 93.474 126.776 93.8841 127.897C94.2942 129.017 94.5043 130.427 94.5043 132.108C94.5043 133.788 94.3042 135.228 93.9141 136.319C93.524 137.409 92.9339 138.279 92.1437 138.919C91.3535 139.56 90.3532 140.01 89.1529 140.25C87.9526 140.49 86.5322 140.62 84.9018 140.62L84.9118 140.63ZM83.0914 130.877L82.6913 131.478C83.2214 131.658 83.8015 131.808 84.4217 131.928C85.0419 132.058 85.672 132.158 86.3222 132.238C86.9624 132.318 87.6125 132.378 88.2527 132.418C88.8929 132.458 89.503 132.478 90.0832 132.478V131.808C89.503 131.808 88.9129 131.788 88.2827 131.738C87.6525 131.688 87.0524 131.628 86.4522 131.548C85.8521 131.468 85.2619 131.368 84.6918 131.247C84.1116 131.127 83.5815 131.007 83.0914 130.867V130.877Z" fill="#1B9768"/>
<path d="M95.4846 131.988C95.4846 130.507 95.6946 129.207 96.1247 128.087C96.5548 126.966 97.165 126.026 97.9652 125.266C98.7654 124.516 99.7356 123.946 100.886 123.555C102.036 123.175 103.317 122.975 104.737 122.975C105.417 122.975 106.097 123.005 106.777 123.065C107.458 123.125 108.108 123.225 108.738 123.355C109.368 123.485 109.958 123.656 110.508 123.846C111.059 124.036 111.559 124.266 112.009 124.536V130.717C111.149 130.717 110.388 130.697 109.728 130.657C109.058 130.617 108.428 130.567 107.818 130.487C107.208 130.417 106.587 130.307 105.947 130.177C105.307 130.047 104.577 129.887 103.767 129.707V134.718H104.547V130.747C105.747 130.997 106.958 131.167 108.198 131.247C109.428 131.327 110.708 131.368 112.019 131.368V139.19C110.969 139.88 109.748 140.35 108.358 140.6C106.968 140.84 105.467 140.97 103.857 140.97C102.656 140.97 101.546 140.78 100.516 140.4C99.4856 140.02 98.6053 139.46 97.8652 138.699C97.125 137.949 96.5448 137.009 96.1247 135.889C95.7046 134.768 95.4946 133.458 95.4946 131.968L95.4846 131.988Z" fill="#1B9768"/>
<path d="M127.103 140.65H113.399V123.315H127.103V128.527H120.051V129.307H127.103V134.668H120.051V135.449H127.103V140.66V140.65Z" fill="#1B9768"/>
<path d="M127.703 63.39C127.703 45.6755 113.339 31.3018 95.6146 31.3018C89.9031 31.3018 84.5317 32.8022 79.8905 35.4228C75.2393 32.8022 69.878 31.3018 64.1665 31.3018C58.455 31.3018 52.8436 32.8722 48.1224 35.6029C43.4012 32.8722 37.9298 31.3018 32.0782 31.3018C14.3637 31.3118 0 45.6755 0 63.39C0 66.6809 0.500129 69.8517 1.42037 72.8424C2.08053 76.2833 3.62093 81.1446 7.13183 85.3957H1.60041V95.9784H17.8746V118.454H30.0777V117.934C31.038 115.133 37.4996 98.6991 57.3347 96.5085C58.9952 96.3285 60.1955 96.1484 60.9957 95.9684H66.5071C66.8472 96.0084 67.2073 96.0584 67.5974 96.0984C89.0729 98.499 94.7144 117.944 94.7144 117.944L94.7744 117.764V118.454H106.978V95.9784H126.102V85.3957H118.951C124.372 79.6542 127.703 71.9122 127.703 63.39ZM83.8116 51.687C89.313 51.687 93.7841 56.1481 93.7841 61.6596C93.7841 67.171 89.323 71.6321 83.8116 71.6321C78.3001 71.6321 73.839 67.171 73.839 61.6596C73.839 56.1481 78.3001 51.687 83.8116 51.687ZM44.5515 51.687C50.0529 51.687 54.524 56.1481 54.524 61.6596C54.524 67.171 50.0629 71.6321 44.5515 71.6321C39.04 71.6321 34.5789 67.171 34.5789 61.6596C34.5789 56.1481 39.04 51.687 44.5515 51.687Z" fill="#1B9768"/>
</svg>
