<svg width="13" height="13" viewBox="0 0 13 13" fill="none" xmlns="http://www.w3.org/2000/svg">
<g clip-path="url(#clip0_0_14)">
<path d="M9.20833 11.375V10.2917C9.20833 9.71703 8.98006 9.16593 8.57373 8.7596C8.1674 8.35327 7.6163 8.125 7.04166 8.125H2.70833C2.1337 8.125 1.5826 8.35327 1.17627 8.7596C0.769941 9.16593 0.541668 9.71703 0.541668 10.2917V11.375" stroke="#21272A" stroke-width="1.4" stroke-linecap="round" stroke-linejoin="round"/>
<path d="M4.875 5.95833C6.07161 5.95833 7.04166 4.98828 7.04166 3.79166C7.04166 2.59505 6.07161 1.625 4.875 1.625C3.67838 1.625 2.70833 2.59505 2.70833 3.79166C2.70833 4.98828 3.67838 5.95833 4.875 5.95833Z" stroke="#21272A" stroke-width="1.4" stroke-linecap="round" stroke-linejoin="round"/>
<path d="M12.4583 11.375V10.2916C12.458 9.81158 12.2982 9.34523 12.0041 8.96581C11.7099 8.5864 11.2981 8.31541 10.8333 8.19539" stroke="#21272A" stroke-width="1.4" stroke-linecap="round" stroke-linejoin="round"/>
<path d="M8.66666 1.6954C9.13272 1.81473 9.54581 2.08578 9.8408 2.46582C10.1358 2.84586 10.2959 3.31326 10.2959 3.79436C10.2959 4.27545 10.1358 4.74286 9.8408 5.1229C9.54581 5.50293 9.13272 5.77398 8.66666 5.89331" stroke="#21272A" stroke-width="1.4" stroke-linecap="round" stroke-linejoin="round"/>
</g>
<defs>
<clipPath id="clip0_0_14">
<rect width="12.6" height="12.6" fill="white" transform="scale(1.03175)"/>
</clipPath>
</defs>
</svg>
