<svg width="289" height="90" viewBox="0 0 289 90" fill="none" xmlns="http://www.w3.org/2000/svg">
<path d="M284.31 4.44629L144.088 75.5586L143.864 75.4492L107.009 57.5195L0.166016 75.4932L0 74.5068L107 56.5068L107.158 56.4805L107.302 56.5508L144.077 74.4414L283.856 3.55371L284.31 4.44629Z" fill="#1B9768"/>
<path d="M112.083 57.5C112.083 59.433 110.516 61 108.583 61C106.65 61 105.083 59.433 105.083 57.5C105.083 55.567 106.65 54 108.583 54C110.516 54 112.083 55.567 112.083 57.5Z" fill="url(#paint0_linear_15_411)"/>
<path d="M165.083 74C165.083 82.8366 157.92 90 149.083 90C140.246 90 133.083 82.8366 133.083 74C133.083 65.1634 140.246 58 149.083 58C157.92 58 165.083 65.1634 165.083 74Z" fill="url(#paint1_linear_15_411)"/>
<path d="M288.083 5.5C288.083 8.53757 285.621 11 282.583 11C279.545 11 277.083 8.53757 277.083 5.5C277.083 2.46243 279.545 0 282.583 0C285.621 0 288.083 2.46243 288.083 5.5Z" fill="url(#paint2_linear_15_411)"/>
<defs>
<linearGradient id="paint0_linear_15_411" x1="108.583" y1="54" x2="108.583" y2="61" gradientUnits="userSpaceOnUse">
<stop stop-color="#1C9768"/>
<stop offset="1" stop-color="#D9FFF0"/>
</linearGradient>
<linearGradient id="paint1_linear_15_411" x1="149.083" y1="58" x2="149.083" y2="90" gradientUnits="userSpaceOnUse">
<stop stop-color="#1C9768"/>
<stop offset="1" stop-color="#D9FFF0"/>
</linearGradient>
<linearGradient id="paint2_linear_15_411" x1="282.583" y1="0" x2="282.583" y2="11" gradientUnits="userSpaceOnUse">
<stop stop-color="#1C9768"/>
<stop offset="1" stop-color="#D9FFF0"/>
</linearGradient>
</defs>
</svg>
