<svg width="37" height="39" viewBox="0 0 37 39" fill="none" xmlns="http://www.w3.org/2000/svg">
<g clip-path="url(#clip0_2_20)">
<path d="M34.7674 30.875C34.7674 31.737 34.4489 32.5636 33.8819 33.1731C33.315 33.7826 32.546 34.125 31.7442 34.125H4.53488C3.73307 34.125 2.96409 33.7826 2.39712 33.1731C1.83015 32.5636 1.51163 31.737 1.51163 30.875V13C1.51163 12.138 1.83015 11.3114 2.39712 10.7019C2.96409 10.0924 3.73307 9.75 4.53488 9.75H10.5814L13.6047 4.875H22.6744L25.6977 9.75H31.7442C32.546 9.75 33.315 10.0924 33.8819 10.7019C34.4489 11.3114 34.7674 12.138 34.7674 13V30.875Z" stroke="#141414" stroke-width="3" stroke-linecap="round" stroke-linejoin="round"/>
<path d="M18.1395 27.625C21.4789 27.625 24.186 24.7149 24.186 21.125C24.186 17.5351 21.4789 14.625 18.1395 14.625C14.8001 14.625 12.093 17.5351 12.093 21.125C12.093 24.7149 14.8001 27.625 18.1395 27.625Z" stroke="#141414" stroke-width="3" stroke-linecap="round" stroke-linejoin="round"/>
</g>
<defs>
<clipPath id="clip0_2_20">
<rect width="36.2791" height="39" fill="white"/>
</clipPath>
</defs>
</svg>
