<svg width="14" height="14" viewBox="0 0 14 14" fill="none" xmlns="http://www.w3.org/2000/svg">
<path fill-rule="evenodd" clip-rule="evenodd" d="M0.22716 0.22716C0.372798 0.0817019 0.570218 0 0.776055 0C0.981891 0 1.17931 0.0817019 1.32495 0.22716L13.7528 12.655C13.8291 12.7261 13.8903 12.8118 13.9327 12.9071C13.9752 13.0024 13.998 13.1052 13.9999 13.2095C14.0017 13.3138 13.9825 13.4174 13.9434 13.5141C13.9044 13.6109 13.8462 13.6987 13.7725 13.7725C13.6987 13.8462 13.6109 13.9044 13.5141 13.9434C13.4174 13.9825 13.3138 14.0017 13.2095 13.9999C13.1052 13.998 13.0024 13.9752 12.9071 13.9327C12.8118 13.8903 12.7261 13.8291 12.655 13.7528L0.22716 1.32495C0.0817019 1.17931 0 0.981891 0 0.776055C0 0.570218 0.0817019 0.372798 0.22716 0.22716Z" fill="#A6A6A6"/>
<path fill-rule="evenodd" clip-rule="evenodd" d="M13.7528 0.22716C13.8982 0.372798 13.9799 0.570218 13.9799 0.776055C13.9799 0.981891 13.8982 1.17931 13.7528 1.32495L1.32495 13.7528C1.17771 13.89 0.982959 13.9647 0.781731 13.9611C0.580502 13.9576 0.388508 13.876 0.246196 13.7337C0.103884 13.5914 0.0223661 13.3994 0.0188157 13.1982C0.0152653 12.997 0.0899595 12.8022 0.227163 12.655L12.655 0.22716C12.8006 0.0817019 12.998 0 13.2039 0C13.4097 0 13.6071 0.0817019 13.7528 0.22716Z" fill="#A6A6A6"/>
</svg>
