<svg width="19" height="19" viewBox="0 0 19 19" fill="none" xmlns="http://www.w3.org/2000/svg">
<path fill-rule="evenodd" clip-rule="evenodd" d="M1.3064e-05 9.48614C0.000140099 9.28198 0.0812989 9.08622 0.225662 8.94186C0.370025 8.7975 0.565786 8.71634 0.769946 8.71621L18.2024 8.71621C18.3058 8.71256 18.4089 8.72977 18.5055 8.76682C18.6021 8.80387 18.6902 8.86 18.7646 8.93186C18.8391 9.00371 18.8983 9.08982 18.9387 9.18505C18.9791 9.28028 19 9.38268 19 9.48614C19 9.5896 18.9791 9.692 18.9387 9.78724C18.8983 9.88247 18.8391 9.96858 18.7646 10.0404C18.6902 10.1123 18.6021 10.1684 18.5055 10.2055C18.4089 10.2425 18.3058 10.2597 18.2024 10.2561L0.769946 10.2561C0.565786 10.256 0.370025 10.1748 0.225662 10.0304C0.0812989 9.88607 0.000140099 9.6903 1.3064e-05 9.48614Z" fill="#1C9768"/>
<path fill-rule="evenodd" clip-rule="evenodd" d="M9.48616 -7.26673e-06C9.69032 0.000119758 9.88609 0.0812789 10.0304 0.225642C10.1748 0.370005 10.256 0.565766 10.2561 0.769926V18.2024C10.2491 18.4019 10.1649 18.5908 10.0212 18.7295C9.87761 18.8681 9.68578 18.9456 9.48616 18.9456C9.28654 18.9456 9.09472 18.8681 8.95109 18.7295C8.80747 18.5908 8.72327 18.4019 8.71623 18.2024L8.71623 0.769927C8.71636 0.565767 8.79752 0.370005 8.94188 0.225642C9.08624 0.081279 9.282 0.000119509 9.48616 -7.26673e-06Z" fill="#1C9768"/>
</svg>
