<svg width="22" height="20" viewBox="0 0 22 20" fill="none" xmlns="http://www.w3.org/2000/svg">
<path fill-rule="evenodd" clip-rule="evenodd" d="M2.11521 0.134081C0.871847 -0.418466 -0.406269 0.835699 0.122646 2.08929L3.38846 9.82965C3.41994 9.90426 3.41994 9.98843 3.38846 10.0631L0.122645 17.8034C-0.406269 19.057 0.871847 20.3112 2.11521 19.7586L21.1085 11.318C22.2971 10.7898 22.2972 9.10288 21.1085 8.57465L2.11521 0.134081ZM8.1678 9.04556C7.6704 9.04556 7.26717 9.44878 7.26717 9.94618C7.26717 10.4436 7.67039 10.8468 8.1678 10.8468L11.7703 10.8468C12.2677 10.8468 12.6709 10.4436 12.6709 9.94618C12.6709 9.44878 12.2677 9.04556 11.7703 9.04556L8.1678 9.04556Z" fill="#1C9768"/>
</svg>
