<svg width="22" height="23" viewBox="0 0 22 23" fill="none" xmlns="http://www.w3.org/2000/svg">
<path d="M21 4.08667C21 1.82904 19.181 0 16.9358 0C15.6224 0 14.4626 0.627952 13.7191 1.5948C12.9757 0.627952 11.811 0 10.5025 0C9.19401 0 8.02927 0.627952 7.28582 1.5948C6.54237 0.627952 5.37763 0 4.06915 0C1.81898 0 0 1.82904 0 4.08667C0 5.45222 0.669106 6.65829 1.69011 7.40087C0.683975 8.97573 0.0941704 10.8496 0.0941704 12.8631C0.0941704 18.4598 4.60939 23 10.1754 23C15.7413 23 20.2565 18.4598 20.2565 12.8631C20.2565 10.9742 19.7361 9.21495 18.839 7.69989C20.1277 7.01213 21.005 5.65655 21.005 4.08667H21ZM5.92282 14.7519C4.79278 14.7519 3.8709 13.8299 3.8709 12.6886C3.8709 11.5473 4.78782 10.6254 5.92282 10.6254C7.05782 10.6254 7.97475 11.5473 7.97475 12.6886C7.97475 13.8299 7.05782 14.7519 5.92282 14.7519ZM14.4229 14.7519C13.2929 14.7519 12.371 13.8299 12.371 12.6886C12.371 11.5473 13.2879 10.6254 14.4229 10.6254C15.5579 10.6254 16.4749 11.5473 16.4749 12.6886C16.4749 13.8299 15.5579 14.7519 14.4229 14.7519Z" fill="#1B9768"/>
</svg>
