<svg width="44" height="48" viewBox="0 0 44 48" fill="none" xmlns="http://www.w3.org/2000/svg">
<path d="M43.9896 8.52871C43.9896 3.81712 40.1793 0 35.4762 0C32.7249 0 30.2954 1.31051 28.7381 3.32828C27.1807 1.31051 24.7409 0 22 0C19.2591 0 16.8193 1.31051 15.2619 3.32828C13.7046 1.31051 11.2647 0 8.52383 0C3.81029 0 0 3.81712 0 8.52871C0 11.3785 1.4016 13.8956 3.54035 15.4453C1.43275 18.732 0.197263 22.6427 0.197263 26.8446C0.197263 38.5248 9.6555 48 21.3148 48C32.974 48 42.4323 38.5248 42.4323 26.8446C42.4323 22.9027 41.3421 19.2312 39.463 16.0693C42.1623 14.634 44 11.805 44 8.52871H43.9896ZM12.4068 30.7866C10.0396 30.7866 8.10854 28.8624 8.10854 26.4806C8.10854 24.0988 10.0293 22.1746 12.4068 22.1746C14.7843 22.1746 16.7051 24.0988 16.7051 26.4806C16.7051 28.8624 14.7843 30.7866 12.4068 30.7866ZM30.2124 30.7866C27.8452 30.7866 25.9141 28.8624 25.9141 26.4806C25.9141 24.0988 27.8348 22.1746 30.2124 22.1746C32.5899 22.1746 34.5106 24.0988 34.5106 26.4806C34.5106 28.8624 32.5899 30.7866 30.2124 30.7866Z" fill="url(#paint0_linear_8_179)"/>
<defs>
<linearGradient id="paint0_linear_8_179" x1="22" y1="0" x2="22" y2="48" gradientUnits="userSpaceOnUse">
<stop offset="0.524038" stop-color="#1C9768"/>
<stop offset="1" stop-color="#D9FFF0"/>
</linearGradient>
</defs>
</svg>
